<?xml version="1.0" encoding="UTF-8"?>
<!DOCTYPE svg PUBLIC "-//W3C//DTD SVG 1.1//EN" "http://www.w3.org/Graphics/SVG/1.1/DTD/svg11.dtd">
<!-- Creator: CorelDRAW 2021 (64-Bit) -->
<svg xmlns="http://www.w3.org/2000/svg" xml:space="preserve" width="53.427mm" height="51.2914mm" version="1.1" style="shape-rendering:geometricPrecision; text-rendering:geometricPrecision; image-rendering:optimizeQuality; fill-rule:evenodd; clip-rule:evenodd"
viewBox="0 0 4587.52 4404.14"
 xmlns:xlink="http://www.w3.org/1999/xlink"
 xmlns:xodm="http://www.corel.com/coreldraw/odm/2003">
 <defs>
  <style type="text/css">
   <![CDATA[
    .fil1 {fill:#00A6D6}
    .fil0 {fill:black;fill-rule:nonzero}
   ]]>
  </style>
 </defs>
 <g id="Layer_x0020_1">
  <metadata id="CorelCorpID_0Corel-Layer"/>
  <g id="_2545078544384">
   <path class="fil0" d="M1691.86 4330.48c188.75,49.11 387.29,73.66 595.57,73.66 211.08,0 412.02,-24.56 602.68,-73.66 190.38,-49.03 374.71,-123.5 552.86,-223.35 177.53,-99.5 335.95,-216.48 475.18,-350.89 138.65,-133.79 259.6,-286.45 362.81,-457.82 102.91,-170.88 179.78,-347.31 230.5,-529.16 50.7,-181.79 76.07,-371.92 76.07,-570.34 0,-196.31 -25.36,-385.41 -76.07,-567.2 -51.15,-183.4 -127.6,-360.72 -229.29,-531.85l-0.44 0.28c-104.82,-170.81 -227.35,-323.44 -367.51,-457.78 -140.17,-134.37 -298.08,-250.56 -473.65,-348.52 -174.76,-97.52 -358.53,-170.93 -551.26,-220.21 -192.02,-49.11 -392.67,-73.65 -601.87,-73.65 -210.48,0 -410.6,24.56 -600.31,73.66 -190.68,49.36 -373.43,123.59 -548.12,222.56l-0.79 0.79c-177.52,99.48 -335.42,216.21 -473.65,350.1 -139.02,134.7 -259.47,287.32 -361.17,457.83 -101.48,170.09 -177.55,346.23 -228.11,528.35 -50.2,180.66 -75.28,369.23 -75.28,565.62 0,198.43 25.36,388.57 76.07,570.34 50.71,181.89 127.57,358.3 230.48,529.16l-0.21 0.14c104.84,170.67 226.9,323.24 366.16,457.68 140.02,135.16 297.68,252.43 472.84,351.68 174.76,99.01 356.96,173.25 546.52,222.56zm159.64 -3757.05c142.12,-38.86 287.45,-58.29 435.93,-58.29 149.57,0 295.66,19.18 438.27,57.54 142.2,38.22 279.65,95.28 412.32,171.09l4.64 3.07c256.51,156.76 459.43,363.09 608.65,618.88 75.23,128.96 131.75,263 169.5,402 37.81,139.3 56.73,283.06 56.73,431.19 0,149.41 -18.66,293.98 -55.96,433.54 -36.82,137.89 -92.64,270.82 -167.36,398.74l0.25 0.12c-75.84,130.37 -165.47,247.86 -268.82,352.4 -103.43,104.61 -220.42,196.11 -350.84,274.35 -263.61,158.17 -546.1,237.28 -847.38,237.28 -151.52,0 -298.66,-19.98 -441.44,-59.88 -142.53,-39.87 -278.4,-99.28 -407.46,-178.15 -127.57,-77.97 -242.49,-168.95 -344.55,-272.8 -101.66,-103.43 -190.54,-219.91 -266.48,-349.26 -76.12,-129.67 -133.44,-264.5 -171.87,-404.37 -38.85,-141.51 -58.3,-285.54 -58.3,-431.96 0,-144.95 19.46,-287.9 58.3,-428.78 38.3,-138.91 95.38,-273.49 171.09,-403.64l1.56 -2.32c156.46,-260.82 362.79,-467.14 618.88,-618.88 127.99,-75.85 262.82,-133.14 404.34,-171.87z"/>
   <circle class="fil1" cx="2293.75" cy="2202.08" r="867.02"/>
  </g>
 </g>
</svg>
